<svg xmlns="http://www.w3.org/2000/svg" version="1.1" xmlns:xlink="http://www.w3.org/1999/xlink" xmlns:svgjs="http://svgjs.com/svgjs" width="1440" height="560" preserveAspectRatio="none" viewBox="0 0 1440 560"><g mask="url(&quot;#SvgjsMask1005&quot;)" fill="none"><rect width="1440" height="560" x="0" y="0" fill="rgba(9, 25, 149, 1)"></rect><path d="M801.56 623.78C929.04 613.47 986.14 374.8 1237.92 356.77 1489.7 338.74 1549.93 123.78 1674.28 115.97" stroke="rgba(255, 69, 0, 1)" stroke-width="2"></path><path d="M253.88 607.58C434.68 602.74 567.89 348.15 926.16 340.29 1284.43 332.43 1420.87 113.83 1598.44 110.69" stroke="rgba(255, 69, 0, 1)" stroke-width="2"></path><path d="M658.71 661.73C813.46 622.4 863.53 206.44 1100.43 200.46 1337.34 194.48 1427.89 317.06 1542.16 318.06" stroke="rgba(255, 69, 0, 1)" stroke-width="2"></path><path d="M275.35 639.23C412.29 618.78 480.73 296.31 707.59 292.98 934.45 289.65 923.7 362.98 1139.82 362.98 1355.94 362.98 1462.59 293.21 1572.06 292.98" stroke="rgba(255, 69, 0, 1)" stroke-width="2"></path><path d="M301.31 577.75C453.45 541.28 502.15 140.25 741.09 132.52 980.03 124.79 960.98 202.52 1180.88 202.52 1400.77 202.52 1509.33 132.74 1620.66 132.52" stroke="rgba(255, 69, 0, 1)" stroke-width="2"></path></g><defs><mask id="SvgjsMask1005"><rect width="1440" height="560" fill="#ffffff"></rect></mask></defs></svg>