<svg xmlns="http://www.w3.org/2000/svg" version="1.1" xmlns:xlink="http://www.w3.org/1999/xlink" xmlns:svgjs="http://svgjs.com/svgjs" width="1440" height="560" preserveAspectRatio="none" viewBox="0 0 1440 560"><g mask="url(&quot;#SvgjsMask1300&quot;)" fill="none"><rect width="1440" height="560" x="0" y="0" fill="rgba(0, 0, 0, 1)"></rect><path d="M -195.65858255238606,422 C -99.66,374.4 92.34,200.4 284.34141744761394,184 C 476.34,167.6 572.34,341.2 764.3414174476139,340 C 956.34,338.8 1052.34,183.4 1244.3414174476138,178 C 1436.34,172.6 1685.21,317.8 1724.3414174476138,313 C 1763.47,308.2 1496.87,185.8 1440,154" stroke="rgba(255, 165, 0, 1)" stroke-width="2"></path><path d="M -775.5698349299353,135 C -679.57,176 -487.57,313 -295.5698349299353,340 C -103.57,367 -7.57,260.8 184.43016507006467,270 C 376.43,279.2 472.43,403.4 664.4301650700647,386 C 856.43,368.6 989.32,182.8 1144.4301650700647,183 C 1299.54,183.2 1380.89,346.2 1440,387" stroke="rgba(0, 0, 151, 1)" stroke-width="2"></path><path d="M -747.1505310342104,165 C -651.15,194 -459.15,306.4 -267.1505310342105,310 C -75.15,313.6 20.85,173.6 212.84946896578953,183 C 404.85,192.4 500.85,363 692.8494689657896,357 C 884.85,351 1023.42,165.8 1172.8494689657896,153 C 1322.28,140.2 1386.57,265 1440,293" stroke="rgba(255, 69, 0, 1)" stroke-width="2"></path></g><defs><mask id="SvgjsMask1300"><rect width="1440" height="560" fill="#ffffff"></rect></mask></defs></svg>