<?xml version="1.0" standalone="no"?>
<!DOCTYPE svg PUBLIC "-//W3C//DTD SVG 20010904//EN"
 "http://www.w3.org/TR/2001/REC-SVG-20010904/DTD/svg10.dtd">
<svg version="1.0" xmlns="http://www.w3.org/2000/svg"
 width="1000.000000pt" height="1000.000000pt" viewBox="0 0 0 0"
 preserveAspectRatio="xMidYMid meet">

<g transform="translate(0.000000,500.000000) scale(0.100000,-0.100000)"
fill="#A52A2A" stroke="none">
<path d="M1965 3958 c-4 -24 -12 -53 -19 -65 l-11 -22 -44 29 c-24 16 -47 27
-52 25 -4 -3 -1 -24 7 -47 7 -22 14 -49 14 -60 0 -12 -32 -51 -81 -96 -200
-188 -363 -461 -435 -727 -20 -74 -31 -294 -16 -321 9 -16 17 -5 58 79 26 53
50 97 54 97 3 0 21 -34 39 -75 83 -188 266 -394 431 -484 48 -26 49 -28 34
-49 -8 -12 -19 -20 -24 -17 -5 3 -19 -27 -31 -67 -12 -40 -25 -75 -29 -78 -4
-3 -10 -50 -12 -105 -5 -91 -4 -104 18 -147 13 -26 24 -55 24 -63 0 -9 13 -36
30 -60 16 -24 30 -50 30 -59 0 -8 12 -26 26 -40 25 -23 26 -25 10 -47 -9 -13
-16 -33 -16 -44 0 -17 2 -18 11 -5 8 12 9 9 4 -10 -15 -62 -17 -90 -6 -90 7 0
9 -15 5 -43 -4 -31 -2 -48 8 -58 8 -8 20 -35 27 -61 7 -26 19 -49 27 -52 7 -3
25 -27 38 -55 26 -51 46 -72 46 -50 0 7 19 -6 43 -29 24 -23 46 -39 50 -36 4
4 13 1 21 -5 25 -21 206 -30 231 -12 5 4 29 13 53 20 23 6 42 16 42 22 0 5 16
19 35 30 19 12 35 26 35 31 0 6 11 19 25 30 14 11 25 27 25 36 0 10 11 33 24
53 14 21 27 58 31 92 7 53 11 60 54 95 53 41 102 95 121 131 9 18 14 20 20 11
10 -16 21 24 46 167 12 63 22 97 27 90 5 -7 5 28 1 78 -4 50 -8 122 -9 161 -1
39 -7 86 -13 105 -22 70 -21 75 34 106 130 72 162 92 233 144 136 101 216 189
264 289 40 84 44 89 73 90 36 0 43 -15 45 -90 l1 -45 18 50 c83 225 -90 656
-388 967 l-96 100 -4 69 c-3 38 -8 69 -12 69 -4 0 -15 -9 -26 -21 -20 -22 -66
-49 -84 -49 -7 0 -6 10 3 28 16 30 29 102 20 102 -4 0 -29 -24 -57 -53 -28
-29 -62 -60 -76 -69 -24 -15 -24 -15 -8 -54 46 -107 83 -290 72 -359 -9 -60
-50 -96 -149 -130 -44 -15 -97 -36 -118 -47 -22 -11 -41 -17 -44 -15 -2 3 4
23 15 44 41 79 53 120 54 192 0 39 10 52 23 31 3 -5 10 -10 16 -10 19 0 8 31
-26 68 -24 27 -31 42 -24 49 13 13 -25 43 -56 43 -17 1 -16 3 8 16 15 8 27 17
27 20 0 4 -30 4 -66 2 -64 -4 -65 -4 -59 19 5 20 2 23 -22 23 -16 0 -43 -4
-61 -9 -33 -10 -41 -4 -20 17 37 37 -51 18 -107 -23 -55 -41 -58 -41 -53 -6 4
25 1 31 -13 31 -10 0 -21 -4 -24 -10 -3 -5 -11 -10 -17 -10 -7 0 -9 23 -5 67
l5 68 -23 -29 c-13 -16 -38 -68 -56 -114 -21 -54 -49 -104 -77 -136 -25 -30
-47 -69 -54 -94 -6 -23 -14 -45 -19 -48 -20 -12 -8 -53 22 -78 17 -14 34 -26
38 -26 12 0 45 40 87 105 l39 60 5 -50 5 -50 18 37 c23 45 68 68 134 68 51 0
109 -27 120 -56 10 -28 -24 -77 -104 -148 l-77 -69 -81 6 c-171 10 -271 95
-291 245 -8 64 11 160 52 265 l35 88 -38 75 c-20 42 -40 77 -44 80 -4 2 -10
-15 -14 -38z m280 -880 c-42 -134 -44 -177 -14 -273 42 -138 92 -207 290 -405
148 -148 197 -227 239 -388 24 -92 24 -149 1 -222 -16 -50 -20 -55 -44 -53
-15 1 -66 25 -113 52 -47 28 -90 51 -95 51 -12 0 -11 27 1 35 6 3 10 21 10 39
0 17 5 37 11 43 7 7 10 46 10 100 -1 48 -2 99 -2 113 -1 14 -7 32 -14 40 -24
28 -46 80 -34 80 18 0 -10 29 -44 47 -21 10 -26 17 -17 23 16 10 6 15 -57 30
-29 6 -53 16 -53 21 0 16 -158 0 -198 -19 -20 -11 -42 -17 -48 -15 -6 2 -27
-13 -46 -32 l-35 -36 -22 36 c-61 103 -87 293 -62 439 21 121 81 252 81 177 0
-9 6 -26 14 -36 13 -19 15 -17 31 23 27 67 134 151 194 152 20 0 22 -3 16 -22z
m639 -2 c43 -18 81 -69 96 -128 l12 -47 25 50 c30 60 40 56 77 -36 41 -103 45
-206 12 -335 -35 -139 -63 -216 -98 -268 -32 -47 -48 -47 -48 -1 0 17 -7 43
-15 59 -16 31 -9 40 13 18 7 -7 12 -8 12 -4 0 5 -23 34 -52 65 l-51 56 29 5
29 6 -34 18 c-38 20 -184 133 -189 145 -1 4 12 12 30 17 l33 10 -47 27 c-47
28 -69 54 -82 95 -6 19 -4 22 18 22 32 0 32 3 4 40 -18 25 -20 35 -12 58 6 16
18 28 31 30 11 2 33 21 48 43 25 39 71 68 108 69 10 0 33 -6 51 -14z m-614
-901 c58 -30 76 -113 43 -197 -30 -78 -134 -198 -169 -198 -19 0 -46 88 -51
161 -6 78 11 164 39 202 11 15 76 45 101 47 4 0 21 -7 37 -15z m226 -504 l7
-111 -29 0 c-58 0 -204 50 -204 70 0 4 8 10 18 13 31 10 75 41 105 74 16 18
33 30 38 27 5 -3 17 12 25 32 23 54 32 30 40 -105z m224 22 c0 -10 -42 -53
-51 -53 -5 0 -13 10 -20 21 -9 17 -8 23 2 30 17 10 69 12 69 2z m-135 -94 c0
-19 -6 -25 -29 -27 l-28 -4 18 31 c21 36 39 36 39 0z m-375 -197 c2 -2 -2 -7
-9 -12 -18 -10 28 -35 84 -45 22 -4 47 -12 55 -17 12 -8 12 -9 -2 -4 -22 7
-24 -10 -2 -18 9 -3 41 -6 72 -6 41 0 53 -3 42 -10 -25 -16 46 -12 87 5 20 8
38 13 41 10 10 -10 -78 -113 -111 -128 -110 -53 -214 14 -283 180 -31 76 -31
92 -1 67 12 -10 24 -20 27 -22z"/>
</g>
</svg>
